<svg xmlns="http://www.w3.org/2000/svg" viewBox="-38.8 -458.6 3284.6 790.0" role="img" aria-label="Med cezir"><path fill="#8A2E18" d="M-2.05 217.82L-2.05 217.82Q-3.66 217.82-5.27 217.02Q-6.88 216.21-7.62 215.04L-7.62 215.04Q-14.65 203.61-17.72 189.84Q-20.80 176.07-20.80 160.99L-20.80 160.99Q-20.80 140.04-16.19 117.70Q-11.57 95.36-4.54 73.97L-4.54 73.97Q4.10 46.88 15.67 19.63L15.67 19.63Q23.73 0.73 32.81-18.02L32.81-18.02Q56.54-67.09 85.11-115.28L85.11-115.28Q120.70-175.49 161.87-234.08L161.87-234.08Q198.19-286.23 239.06-336.47L239.06-336.47Q256.05-357.13 274.07-377.05L274.07-377.05Q288.57-393.31 304.83-408.84L304.83-408.84Q310.11-413.96 318.53-421.00Q326.95-428.03 336.33-433.59Q345.70-439.16 353.47-439.16L353.47-439.16Q360.64-439.16 364.38-435.35Q368.12-431.54 369.73-426.12Q371.34-420.70 371.78-415.72L371.78-415.72Q372.22-410.74 372.22-405.47L372.22-405.47Q372.22-399.61 371.78-393.60L371.78-393.60Q371.04-380.13 368.85-366.06L368.85-366.06Q363.72-332.08 356.10-297.80L356.10-297.80Q347.75-259.13 338.23-220.17L338.23-220.17Q333.40-199.51 328.42-179.00L328.42-179.00Q323.73-160.11 319.34-141.21L319.34-141.21Q311.28-106.79 304.39-72.80L304.39-72.80Q303.96-70.17 303.52-67.53L303.52-67.53Q301.32-56.40 299.85-45.70L299.85-45.70Q298.54-35.30 298.24-25.49L298.24-25.49Q298.68-23.58 300-23.58L300-23.58Q301.17-23.58 302.64-25.05L302.64-25.05L307.03-31.35Q324.17-56.25 340.43-81.59L340.43-81.59Q352.00-99.17 363.72-116.89L363.72-116.89Q399.32-171.39 436.38-225.73L436.38-225.73Q463.48-264.99 491.75-303.81L491.75-303.81Q516.94-338.23 545.51-371.78L545.51-371.78Q555.91-383.94 568.07-396.68Q580.22-409.42 593.26-420.12L593.26-420.12Q599.12-424.80 606.23-429.35Q613.33-433.89 620.87-436.89Q628.42-439.89 635.45-439.89L635.45-439.89L637.65-439.75Q643.65-439.01 646.73-435.13Q649.80-431.25 650.68-425.90Q651.56-420.56 651.56-415.72L651.56-415.72L651.56-412.79Q650.98-400.63 648.34-388.33L648.34-388.33Q645.70-373.24 641.75-357.86L641.75-357.86Q632.52-320.95 621.53-283.45L621.53-283.45Q618.60-272.90 615.53-262.35L615.53-262.35Q606.45-230.71 598.10-199.07L598.10-199.07Q587.99-161.72 580.52-124.80L580.52-124.80Q579.64-120.26 578.61-115.72L578.61-115.72Q575.68-101.51 573.34-87.52Q571.00-73.54 571.00-60.64L571.00-60.64L571.00-59.77Q571.14-37.79 575.54-23.44Q579.93-9.08 587.40-0.95Q594.87 7.18 604.54 10.40Q614.21 13.62 624.76 13.62L624.76 13.62Q635.74 13.62 646.44 11.13Q657.13 8.64 666.50 5.27L666.50 5.27Q710.01-10.84 752.78-33.69L752.78-33.69Q810.50-64.45 866.31-100.78L866.31-100.78Q868.07-101.95 870.26-102.54Q872.46-103.13 873.93-103.13L873.93-103.13Q875.68-103.13 877.37-102.25Q879.05-101.37 879.79-100.05L879.79-100.05Q880.22-99.02 880.22-97.71L880.22-97.71Q880.22-96.09 879.64-94.63L879.64-94.63Q878.91-93.02 877.37-91.26Q875.83-89.50 874.07-88.18L874.07-88.18Q817.09-51.42 758.06-19.78L758.06-19.78Q713.38 4.25 667.53 20.95L667.53 20.95Q655.66 25.34 642.63 28.05Q629.59 30.76 616.99 30.76L616.99 30.76Q605.13 30.76 594.07 27.61Q583.01 24.46 574.15 17.21Q565.28 9.96 559.86-2.05L559.86-2.05Q550.49-24.02 550.49-46.58L550.49-46.58Q550.49-50.24 550.78-53.76L550.78-53.76Q553.27-87.16 560.45-121.58L560.45-121.58Q568.21-158.94 578.47-196.58L578.47-196.58Q589.60-238.77 601.90-281.25L601.90-281.25Q603.66-287.70 605.57-293.99L605.57-293.99Q614.36-324.76 621.97-355.08L621.97-355.08Q625.93-370.17 628.42-384.52L628.42-384.52Q630.76-396.09 631.35-406.93L631.35-406.93Q631.49-408.69 631.49-411.18L631.49-411.18Q631.49-414.84 630.91-418.36Q630.32-421.88 628.71-422.31L628.71-422.31L627.54-422.31Q620.95-422.31 611.43-415.65Q601.90-408.98 591.94-399.39Q581.98-389.79 573.49-380.42Q564.99-371.04 560.01-365.19L560.01-365.19Q532.62-332.81 507.71-298.97L507.71-298.97Q479.59-260.60 452.93-221.63L452.93-221.63Q411.62-161.13 371.92-100.05L371.92-100.05Q362.55-85.84 353.32-71.78L353.32-71.78Q352.44-70.31 351.42-68.99L351.42-68.99Q335.89-45.12 319.48-21.68L319.48-21.68Q314.36-14.21 308.20-6.59L308.20-6.59Q306.01-3.81 301.76-0.15Q297.51 3.52 292.09 4.10L292.09 4.10L291.21 4.10Q285.21 4.10 282.42 0.29Q279.64-3.52 278.83-8.64Q278.03-13.77 278.03-17.72L278.03-17.72L278.03-19.34Q278.32-30.32 279.79-41.16L279.79-41.16Q281.84-55.08 284.62-68.99L284.62-68.99Q291.21-103.56 299.41-138.13L299.41-138.13Q308.94-177.69 318.31-217.09L318.31-217.09Q318.90-219.29 319.34-221.48L319.34-221.48Q328.13-258.11 336.18-294.58L336.18-294.58Q343.65-328.56 348.78-361.52L348.78-361.52Q348.78-361.82 348.93-362.26L348.93-362.26Q350.68-375.59 351.56-388.18L351.56-388.18Q352.00-393.75 352.00-399.02L352.00-399.02Q352.00-403.56 351.56-408.11L351.56-408.11Q351.42-410.60 350.83-413.75Q350.24-416.89 349.07-419.31Q347.90-421.73 346.14-421.88L346.14-421.88Q345.26-421.88 343.21-420.70Q341.16-419.53 338.67-417.77L338.67-417.77Q327.54-410.01 317.29-399.90L317.29-399.90Q302.20-385.69 288.28-370.02L288.28-370.02Q270.70-350.68 254.44-330.47L254.44-330.47Q214.01-280.96 178.27-229.98L178.27-229.98Q137.55-171.97 102.83-112.79L102.83-112.79Q74.56-65.04 51.27-17.14L51.27-17.14Q42.33 1.32 34.42 20.07L34.42 20.07Q23.14 46.29 14.79 72.36L14.79 72.36Q8.06 92.87 3.66 114.04Q-0.73 135.21-0.73 154.83L-0.73 154.83Q-0.73 168.46 1.98 180.76Q4.69 193.07 10.99 203.17L10.99 203.17Q11.57 204.35 11.57 205.96L11.57 205.96Q11.57 207.57 10.99 209.18L10.99 209.18Q10.40 210.50 9.08 212.11Q7.76 213.72 6.01 215.04L6.01 215.04Q4.54 216.21 2.12 217.02Q-0.29 217.82-2.05 217.82ZM914.50 5.86L914.50 5.86Q898.97 5.86 884.55 2.20Q870.12-1.46 859.64-9.45Q849.17-17.43 844.78-30.47L844.78-30.47Q842.87-37.06 842.87-44.38L842.87-44.38Q842.87-58.01 849.02-72.66L849.02-72.66Q863.38-105.91 900-130.37L900-130.37Q915.23-140.04 929.74-145.02Q944.24-150 954.49-150L954.49-150Q962.99-150 968.41-146.34Q973.83-142.68 973.83-135.94L973.83-135.94Q973.83-132.28 971.92-127.73L971.92-127.73L970.90-125.54Q965.63-115.14 951.20-104.88Q936.77-94.63 916.48-87.52Q896.19-80.42 873.78-80.42L873.78-80.42L872.02-80.42Q871.44-79.69 870.26-77.20Q869.09-74.71 867.77-71.63L867.77-71.63Q863.09-60.94 863.09-51.12L863.09-51.12Q863.09-45.70 864.70-40.43L864.70-40.43Q868.07-30.03 876.56-23.58Q885.06-17.14 897.00-14.28Q908.94-11.43 922.12-11.43L922.12-11.43Q942.04-11.43 965.70-16.99Q989.36-22.56 1011.04-30.32L1011.04-30.32Q1043.26-42.04 1074.32-59.33Q1105.37-76.61 1137.01-98.44L1137.01-98.44Q1139.06-99.76 1141.48-100.56Q1143.90-101.37 1145.36-101.37L1145.36-101.37Q1148.29-101.37 1150.05-99.46Q1151.81-97.56 1151.81-95.07L1151.81-95.07Q1151.81-93.90 1151.37-92.72L1151.37-92.72Q1150.05-89.79 1146.39-87.01L1146.39-87.01Q1113.87-63.87 1080.18-45.48Q1046.48-27.10 1011.91-14.65L1011.91-14.65Q988.62-6.15 962.70-0.15Q936.77 5.86 914.50 5.86ZM886.38-98.73L886.38-98.73Q907.91-99.17 925.63-107.81L925.63-107.81Q948.49-118.80 951.86-127.29L951.86-127.29Q952.29-128.47 952.29-129.05L952.29-129.05Q952.29-129.93 951.27-130.22L951.27-130.22Q950.10-131.40 945.85-131.40L945.85-131.40Q935.60-131.40 918.60-123.49Q901.61-115.58 886.52-99.76L886.52-99.76L886.23-99.32L886.23-99.02Q886.23-98.88 886.23-98.80Q886.23-98.73 886.38-98.73ZM1274.41-109.57L1274.41-109.57L1274.41-107.08Q1274.41-92.43 1276.25-76.46Q1278.08-60.50 1283.42-46.36Q1288.77-32.23 1298.80-22.63Q1308.84-13.04 1324.95-10.69L1324.95-10.69Q1328.76-10.11 1332.86-10.11L1332.86-10.11Q1347.80-10.11 1364.21-15.53Q1380.62-20.95 1397.02-29.30L1397.02-29.30Q1423.68-42.92 1449.68-61.23Q1475.68-79.54 1499.41-99.02L1499.41-99.02Q1501.32-100.63 1503.96-101.59Q1506.59-102.54 1508.50-102.54L1508.50-102.54Q1509.96-102.54 1511.35-101.95Q1512.74-101.37 1513.62-100.49L1513.62-100.49Q1514.79-98.88 1514.79-96.97L1514.79-96.97Q1514.79-95.36 1514.21-93.90L1514.21-93.90Q1513.62-92.58 1512.52-91.19Q1511.43-89.79 1510.11-88.62L1510.11-88.62Q1485.21-68.26 1457.59-48.93Q1429.98-29.59 1401.71-15.09L1401.71-15.09Q1383.11-5.57 1363.26 0.81Q1343.41 7.18 1325.54 7.18L1325.54 7.18Q1320.26 7.18 1315.28 6.59L1315.28 6.59Q1290.38 2.64 1277.20-13.48Q1264.01-29.59 1259.11-50.61Q1254.20-71.63 1254.35-90.38L1254.35-90.38L1253.61-89.79Q1219.19-57.57 1180.96-29.15L1180.96-29.15Q1168.07-19.63 1153.13-11.21Q1138.18-2.78 1123.54 1.46L1123.54 1.46Q1114.60 3.96 1107.13 3.96L1107.13 3.96Q1101.27 3.96 1096.07 2.20Q1090.87 0.44 1087.35-3.22L1087.35-3.22Q1082.23-9.38 1082.23-18.02L1082.23-18.02Q1082.23-26.95 1086.47-36.77L1086.47-36.77L1086.62-37.35Q1092.04-49.51 1100.98-61.30Q1109.91-73.10 1120.17-83.35L1120.17-83.35Q1133.94-97.12 1151.07-109.94Q1168.21-122.75 1186.82-131.40Q1205.42-140.04 1223.29-141.36L1223.29-141.36Q1224.46-141.36 1225.49-141.50L1225.49-141.50Q1226.51-141.50 1227.54-141.50L1227.54-141.50Q1238.53-141.50 1246.66-139.16Q1254.79-136.82 1255.96-135.94L1255.96-135.94L1256.25-137.55Q1260.94-182.52 1276.46-229.39L1276.46-229.39Q1283.06-249.46 1291.70-269.97L1291.70-269.97Q1302.25-294.73 1315.87-319.19L1315.87-319.19Q1326.27-337.79 1339.45-356.47Q1352.64-375.15 1368.46-391.85L1368.46-391.85Q1381.64-405.62 1397.61-417.33Q1413.57-429.05 1431.30-435.35L1431.30-435.35Q1446.97-440.63 1461.04-440.63L1461.04-440.63L1462.35-440.63Q1476.56-440.33 1484.77-431.84L1484.77-431.84Q1487.99-428.03 1489.45-423.12Q1490.92-418.21 1490.92-412.79L1490.92-412.79Q1490.92-401.81 1486.82-390.09L1486.82-390.09Q1484.62-382.62 1480.96-374.56L1480.96-374.56Q1470.56-350.83 1456.64-328.42L1456.64-328.42Q1432.62-290.48 1404.05-253.86L1404.05-253.86Q1372.27-213.43 1337.26-174.61L1337.26-174.61Q1306.05-140.19 1274.41-109.57ZM1275.44-132.86L1275.44-132.86L1275.44-131.40L1277.05-133.01Q1295.36-151.46 1322.90-181.64L1322.90-181.64Q1357.47-219.58 1388.38-259.28L1388.38-259.28Q1416.36-294.58 1439.36-331.49L1439.36-331.49Q1450.63-349.07 1462.35-374.85L1462.35-374.85Q1466.16-383.79 1468.51-391.92Q1470.85-400.05 1470.85-406.64L1470.85-406.64Q1470.85-413.96 1467.19-418.51L1467.19-418.51Q1462.79-423.34 1454.30-423.19L1454.30-423.19L1452.25-423.19Q1442.58-423.19 1432.18-419.68L1432.18-419.68Q1418.26-414.55 1405.74-405.18Q1393.21-395.80 1382.08-384.23L1382.08-384.23Q1367.43-368.85 1355.35-351.56Q1343.26-334.28 1333.74-316.99L1333.74-316.99Q1320.56-293.70 1310.30-269.68L1310.30-269.68Q1302.25-250.20 1295.80-230.86L1295.80-230.86Q1280.42-183.98 1276.03-139.16L1276.03-139.16Q1275.88-136.96 1275.59-135.06L1275.59-135.06Q1275.59-133.89 1275.44-132.86ZM1252.44-109.13L1252.44-109.13Q1248.19-116.02 1239.92-120.12Q1231.64-124.22 1219.92-124.22L1219.92-124.22Q1219.19-124.22 1218.46-124.22L1218.46-124.22Q1217.72-124.07 1216.99-124.07L1216.99-124.07Q1195.75-122.17 1173.49-107.74Q1151.22-93.31 1133.35-75.15L1133.35-75.15Q1124.71-66.80 1117.38-57.28Q1110.06-47.75 1105.81-37.94L1105.81-37.94L1105.37-36.91Q1102.44-30.03 1102.44-24.32L1102.44-24.32Q1102.44-19.78 1104.93-16.70L1104.93-16.70Q1108.01-13.48 1114.31-13.48L1114.31-13.48Q1119.14-13.48 1124.56-15.09L1124.56-15.09Q1136.13-18.31 1148.36-25.27Q1160.60-32.23 1171.58-40.43L1171.58-40.43Q1210.55-69.43 1245.85-102.98L1245.85-102.98Q1248.49-105.32 1250.24-107.08L1250.24-107.08Q1251.86-108.54 1252.44-109.13ZM1874.41-106.49L1874.41-106.49Q1872.51-122.61 1856.40-125.54L1856.40-125.54Q1854.05-125.98 1851.12-125.98L1851.12-125.98Q1838.82-125.98 1825.34-118.95L1825.34-118.95Q1806.01-108.98 1792.68-91.41L1792.68-91.41Q1786.08-82.76 1782.28-73.54L1782.28-73.54Q1777.29-62.11 1777.29-52.00L1777.29-52.00Q1777.29-46.44 1778.91-41.31L1778.91-41.31Q1783.89-26.51 1797.95-19.92Q1812.01-13.33 1830.32-12.60L1830.32-12.60Q1833.40-12.45 1836.62-12.45L1836.62-12.45Q1856.54-12.45 1880.05-17.94Q1903.56-23.44 1925.10-31.20L1925.10-31.20Q1991.31-54.79 2051.22-99.32L2051.22-99.32Q2053.13-100.63 2055.54-101.51Q2057.96-102.39 2059.72-102.39L2059.72-102.39Q2061.33-102.39 2062.87-101.73Q2064.40-101.07 2064.99-100.05L2064.99-100.05Q2066.02-98.44 2066.02-96.68L2066.02-96.68Q2066.02-95.07 2065.43-93.60L2065.43-93.60Q2064.84-92.29 2063.60-90.82Q2062.35-89.36 2060.89-88.18L2060.89-88.18Q1996.73-40.72 1926.27-15.53L1926.27-15.53Q1902.83-7.03 1876.83-1.03Q1850.83 4.98 1828.71 4.98L1828.71 4.98Q1825.20 4.98 1821.83 4.83L1821.83 4.83Q1800.15 3.81 1782.86-4.76Q1765.58-13.33 1759.28-31.64L1759.28-31.64Q1757.37-38.23 1757.37-45.56L1757.37-45.56Q1757.37-59.03 1763.53-73.68L1763.53-73.68Q1768.51-85.25 1776.86-96.53L1776.86-96.53Q1794.43-119.38 1820.65-133.30L1820.65-133.30Q1841.02-143.41 1858.59-143.41L1858.59-143.41Q1862.84-143.41 1866.80-142.82L1866.80-142.82Q1878.96-140.63 1885.99-133.08Q1893.02-125.54 1894.63-114.40L1894.63-114.40L1894.63-113.82Q1894.63-112.21 1893.90-110.45L1893.90-110.45Q1893.02-108.54 1890.89-106.35Q1888.77-104.15 1886.13-102.98L1886.13-102.98Q1884.81-102.39 1883.35-102.10Q1881.88-101.81 1880.86-101.81L1880.86-101.81Q1878.52-101.81 1876.68-103.13Q1874.85-104.44 1874.41-106.49ZM2100.59 5.86L2100.59 5.86Q2085.06 5.86 2070.63 2.20Q2056.20-1.46 2045.73-9.45Q2035.25-17.43 2030.86-30.47L2030.86-30.47Q2028.96-37.06 2028.96-44.38L2028.96-44.38Q2028.96-58.01 2035.11-72.66L2035.11-72.66Q2049.46-105.91 2086.08-130.37L2086.08-130.37Q2101.32-140.04 2115.82-145.02Q2130.32-150 2140.58-150L2140.58-150Q2149.07-150 2154.49-146.34Q2159.91-142.68 2159.91-135.94L2159.91-135.94Q2159.91-132.28 2158.01-127.73L2158.01-127.73L2156.98-125.54Q2151.71-115.14 2137.28-104.88Q2122.85-94.63 2102.56-87.52Q2082.28-80.42 2059.86-80.42L2059.86-80.42L2058.11-80.42Q2057.52-79.69 2056.35-77.20Q2055.18-74.71 2053.86-71.63L2053.86-71.63Q2049.17-60.94 2049.17-51.12L2049.17-51.12Q2049.17-45.70 2050.78-40.43L2050.78-40.43Q2054.15-30.03 2062.65-23.58Q2071.14-17.14 2083.08-14.28Q2095.02-11.43 2108.20-11.43L2108.20-11.43Q2128.13-11.43 2151.78-16.99Q2175.44-22.56 2197.12-30.32L2197.12-30.32Q2229.35-42.04 2260.40-59.33Q2291.46-76.61 2323.10-98.44L2323.10-98.44Q2325.15-99.76 2327.56-100.56Q2329.98-101.37 2331.45-101.37L2331.45-101.37Q2334.38-101.37 2336.13-99.46Q2337.89-97.56 2337.89-95.07L2337.89-95.07Q2337.89-93.90 2337.45-92.72L2337.45-92.72Q2336.13-89.79 2332.47-87.01L2332.47-87.01Q2299.95-63.87 2266.26-45.48Q2232.57-27.10 2198.00-14.65L2198.00-14.65Q2174.71-6.15 2148.78-0.15Q2122.85 5.86 2100.59 5.86ZM2072.46-98.73L2072.46-98.73Q2093.99-99.17 2111.72-107.81L2111.72-107.81Q2134.57-118.80 2137.94-127.29L2137.94-127.29Q2138.38-128.47 2138.38-129.05L2138.38-129.05Q2138.38-129.93 2137.35-130.22L2137.35-130.22Q2136.18-131.40 2131.93-131.40L2131.93-131.40Q2121.68-131.40 2104.69-123.49Q2087.70-115.58 2072.61-99.76L2072.61-99.76L2072.31-99.32L2072.31-99.02Q2072.31-98.88 2072.31-98.80Q2072.31-98.73 2072.46-98.73ZM2335.11-7.32L2335.11-7.32Q2340.23-6.30 2348.51-0.66Q2356.79 4.98 2363.82 14.36L2363.82 14.36Q2366.75 18.60 2368.80 22.92Q2370.85 27.25 2371.58 29.88L2371.58 29.88Q2379.93 26.66 2390.33 22.71L2390.33 22.71Q2403.08 17.87 2417.14 12.45L2417.14 12.45Q2419.34 11.57 2421.53 10.69L2421.53 10.69Q2452.00-0.88 2482.18-13.92L2482.18-13.92Q2517.33-29.30 2551.61-48.34L2551.61-48.34Q2593.80-72.22 2634.08-99.90L2634.08-99.90Q2635.84-101.07 2638.11-101.88Q2640.38-102.69 2641.99-102.69L2641.99-102.69Q2643.60-102.69 2645.29-101.81Q2646.97-100.93 2647.71-99.76L2647.71-99.76Q2648.29-98.58 2648.29-97.12L2648.29-97.12Q2648.29-95.51 2647.71-93.90L2647.71-93.90Q2647.12-92.58 2645.65-90.89Q2644.19-89.21 2642.43-88.04L2642.43-88.04Q2601.12-59.33 2557.47-34.72L2557.47-34.72Q2521.88-14.94 2485.25 1.03L2485.25 1.03Q2452.00 15.38 2418.90 27.98L2418.90 27.98Q2393.41 37.65 2374.66 44.97L2374.66 44.97Q2375.24 49.37 2375.24 54.35L2375.24 54.35Q2375.24 70.46 2370.12 91.11L2370.12 91.11Q2365.43 109.28 2357.37 128.03L2357.37 128.03Q2341.99 163.33 2319.87 197.02L2319.87 197.02Q2305.52 219.73 2286.25 244.04Q2266.99 268.36 2244.43 287.26L2244.43 287.26Q2231.10 298.10 2215.80 305.71Q2200.49 313.33 2185.84 313.33L2185.84 313.33Q2183.64 313.33 2181.15 313.18L2181.15 313.18Q2165.63 311.13 2157.28 300.81Q2148.93 290.48 2146.44 277.59L2146.44 277.59Q2144.82 269.53 2144.82 260.89L2144.82 260.89Q2144.82 247.41 2148.19 232.91Q2151.56 218.41 2157.57 204.20L2157.57 204.20L2157.86 203.47Q2178.08 156.88 2219.68 117.63L2219.68 117.63Q2246.34 92.58 2277.17 73.83Q2308.01 55.08 2340.09 42.33L2340.09 42.33Q2341.70 41.75 2343.31 41.02L2343.31 41.02Q2346.39 39.84 2348.58 38.96Q2350.78 38.09 2351.22 37.94L2351.22 37.94Q2350.78 36.33 2349.32 33.25Q2347.85 30.18 2345.51 26.81L2345.51 26.81Q2337.30 15.53 2324.05 10.40Q2310.79 5.27 2293.51 4.98L2293.51 4.98Q2290.72 4.98 2289.04 3.08Q2287.35 1.17 2287.35-1.32L2287.35-1.32Q2287.35-2.20 2287.65-3.22L2287.65-3.22L2287.79-3.66Q2289.11-6.45 2292.41-9.01Q2295.70-11.57 2299.37-12.30L2299.37-12.30Q2322.22-15.97 2343.97-29.30Q2365.72-42.63 2383.59-62.26L2383.59-62.26Q2398.68-78.66 2406.88-96.83L2406.88-96.83L2407.18-97.71Q2410.84-106.05 2410.84-112.79L2410.84-112.79Q2410.84-116.60 2409.38-119.38L2409.38-119.38Q2406.59-124.37 2400.15-124.66L2400.15-124.66Q2399.85-124.66 2399.56-124.80L2399.56-124.80Q2398.83-124.95 2397.80-124.95L2397.80-124.95Q2396.63-124.95 2395.61-124.66L2395.61-124.66Q2395.46-124.66 2395.31-124.66L2395.31-124.66Q2383.59-122.31 2370.70-113.82L2370.70-113.82Q2351.37-101.51 2332.62-88.33L2332.62-88.33Q2330.71-87.01 2328.37-86.13Q2326.03-85.25 2324.41-85.25L2324.41-85.25Q2322.80-85.25 2321.12-86.06Q2319.43-86.87 2318.55-88.04L2318.55-88.04Q2317.97-89.21 2317.97-90.82L2317.97-90.82Q2317.97-92.43 2318.55-93.90L2318.55-93.90Q2320.02-97.12 2323.54-99.76L2323.54-99.76Q2343.02-113.82 2363.38-126.42L2363.38-126.42Q2371.58-131.69 2381.03-136.16Q2390.48-140.63 2399.85-141.94L2399.85-141.94Q2402.64-142.24 2404.98-142.24L2404.98-142.24Q2407.62-142.24 2409.96-141.94L2409.96-141.94Q2422.12-140.48 2427.98-131.40L2427.98-131.40Q2430.91-125.83 2430.91-118.95L2430.91-118.95Q2430.91-108.40 2425.78-96.83L2425.78-96.83Q2415.67-74.85 2397.66-55.22L2397.66-55.22Q2381.84-37.94 2364.55-25.12Q2347.27-12.30 2335.11-7.32ZM2354.59 52.73L2354.59 52.73L2342.29 57.86Q2312.55 69.58 2284.57 86.43Q2256.59 103.27 2232.13 126.12L2232.13 126.12Q2194.78 161.57 2176.76 203.32L2176.76 203.32L2176.46 204.05Q2165.04 230.71 2165.04 254.30L2165.04 254.30Q2165.04 261.77 2166.36 268.80L2166.36 268.80Q2168.26 279.05 2173.97 286.74Q2179.69 294.43 2190.53 295.90L2190.53 295.90Q2191.26 296.04 2191.92 296.04Q2192.58 296.04 2193.31 296.04L2193.31 296.04Q2203.13 296.04 2213.38 290.63Q2223.63 285.21 2233.59 276.86L2233.59 276.86Q2253.96 259.86 2271.68 237.45Q2289.40 215.04 2302.88 193.80L2302.88 193.80Q2323.83 161.57 2338.48 128.17L2338.48 128.17Q2345.95 110.60 2350.34 93.60L2350.34 93.60Q2355.03 74.71 2355.03 60.64L2355.03 60.64Q2355.03 56.40 2354.59 52.73ZM2647.71-93.60L2647.71-93.60Q2641.70-79.39 2638.33-67.31Q2634.96-55.22 2634.96-45.56L2634.96-45.56Q2634.96-30.91 2644.56-22.41Q2654.15-13.92 2676.27-12.60L2676.27-12.60Q2679.35-12.45 2682.57-12.45L2682.57-12.45Q2702.64-12.45 2726.15-17.94Q2749.66-23.44 2771.19-31.20L2771.19-31.20Q2837.11-54.79 2897.17-99.32L2897.17-99.32Q2899.07-100.63 2901.49-101.51Q2903.91-102.39 2905.66-102.39L2905.66-102.39Q2907.28-102.39 2908.89-101.73Q2910.50-101.07 2911.08-100.05L2911.08-100.05Q2912.11-98.44 2912.11-96.68L2912.11-96.68Q2912.11-95.21 2911.52-93.75L2911.52-93.75Q2910.94-92.43 2909.62-90.82Q2908.30-89.21 2906.84-88.18L2906.84-88.18Q2842.68-40.72 2772.36-15.53L2772.36-15.53Q2748.78-7.03 2722.85-1.03Q2696.92 4.98 2674.80 4.98L2674.80 4.98Q2671.29 4.98 2667.92 4.83L2667.92 4.83Q2651.22 4.10 2637.67-1.90Q2624.12-7.91 2618.12-21.39L2618.12-21.39Q2615.04-29.59 2615.04-39.11L2615.04-39.11Q2615.04-52.00 2619.14-66.14Q2623.24-80.27 2628.81-93.60L2628.81-93.60Q2630.27-96.68 2634.23-99.46Q2638.18-102.25 2641.85-102.25L2641.85-102.25Q2644.78-102.25 2646.53-100.42Q2648.29-98.58 2648.29-96.09L2648.29-96.09Q2648.29-94.92 2647.71-93.60ZM2671.14-137.84L2670.85-137.26L2665.58-126.56Q2663.38-122.46 2658.47-119.38Q2653.56-116.31 2649.32-116.31L2649.32-116.31L2648.73-116.31Q2645.51-116.60 2643.68-118.80Q2641.85-121.00 2641.85-123.78L2641.85-123.78Q2641.85-125.54 2642.58-127.29L2642.58-127.29L2642.87-127.88L2648.00-138.43Q2650.20-142.38 2655.03-145.53Q2659.86-148.68 2664.11-148.68L2664.11-148.68L2664.84-148.68Q2668.07-148.39 2669.97-146.26Q2671.88-144.14 2671.88-141.21L2671.88-141.21Q2671.88-139.60 2671.14-137.84L2671.14-137.84ZM2984.03 7.62L2984.03 7.62Q2971.29 7.62 2959.35 3.66Q2947.41-0.29 2942.43-10.25L2942.43-10.25Q2940.09-15.67 2940.09-21.83L2940.09-21.83Q2940.09-31.64 2944.92-42.48L2944.92-42.48Q2949.02-51.56 2954.44-60.21L2954.44-60.21Q2956.93-64.01 2959.72-67.97L2959.72-67.97Q2968.95-80.57 2974.66-92.87L2974.66-92.87Q2975.98-96.09 2976.71-99.02L2976.71-99.02Q2977.00-100.05 2977.00-100.93L2977.00-100.93L2977.00-101.66Q2977.00-105.76 2974.66-109.13Q2972.31-112.50 2968.87-115.21Q2965.43-117.92 2962.21-120.12L2962.21-120.12L2953.86-125.83Q2929.98-104.00 2904.64-86.87L2904.64-86.87Q2902.88-85.69 2900.61-85.03Q2898.34-84.38 2896.73-84.38L2896.73-84.38Q2895.12-84.38 2893.43-85.18Q2891.75-85.99 2891.02-87.16L2891.02-87.16Q2890.43-88.33 2890.43-89.79L2890.43-89.79Q2890.43-91.41 2891.02-92.87L2891.02-92.87Q2891.75-94.48 2893.21-96.17Q2894.68-97.85 2896.44-99.17L2896.44-99.17Q2922.66-117.04 2942.14-135.21L2942.14-135.21Q2939.79-137.70 2937.89-142.46Q2935.99-147.22 2935.99-153.37L2935.99-153.37L2935.99-154.98Q2936.72-162.16 2939.79-169.63L2939.79-169.63Q2949.46-190.43 2968.65-205.08L2968.65-205.08Q2973.78-209.03 2980.52-212.40Q2987.26-215.77 2993.70-216.06L2993.70-216.06Q2997.51-216.06 3000.88-214.75Q3004.25-213.43 3006.15-210.79L3006.15-210.79Q3007.91-207.86 3007.91-204.05L3007.91-204.05Q3007.91-198.05 3004.83-191.16L3004.83-191.16Q2998.83-178.27 2991.65-168.75L2991.65-168.75Q2987.84-163.33 2983.45-157.76L2983.45-157.76Q2978.76-151.61 2974.80-146.85Q2970.85-142.09 2969.38-140.77L2969.38-140.77Q2971.29-139.45 2973.63-137.99L2973.63-137.99Q2978.76-134.91 2984.18-130.74Q2989.60-126.56 2993.48-121.00Q2997.36-115.43 2997.36-107.81L2997.36-107.81Q2997.36-105.03 2996.63-101.81L2996.63-101.81Q2995.46-97.41 2993.70-93.02L2993.70-93.02Q2987.40-79.54 2978.32-67.09L2978.32-67.09Q2969.53-54.79 2963.82-42.48L2963.82-42.48Q2960.30-34.72 2960.30-28.27L2960.30-28.27Q2960.30-24.46 2961.77-21.24L2961.77-21.24Q2964.99-14.65 2973.41-12.16Q2981.84-9.67 2991.65-9.67L2991.65-9.67Q3004.25-9.67 3018.46-12.38Q3032.67-15.09 3046.58-19.19L3046.58-19.19Q3088.18-31.35 3131.32-52.59Q3174.46-73.83 3213.87-100.05L3213.87-100.05Q3215.63-101.22 3217.82-101.88Q3220.02-102.54 3221.48-102.54L3221.48-102.54Q3223.24-102.54 3225-101.66Q3226.76-100.78 3227.34-99.46L3227.34-99.46Q3227.78-98.44 3227.78-96.97L3227.78-96.97Q3227.78-95.36 3227.20-93.90L3227.20-93.90Q3226.61-92.43 3225.22-90.82Q3223.83-89.21 3222.22-87.89L3222.22-87.89Q3180.91-60.50 3135.35-38.09Q3089.79-15.67 3046.00-2.93L3046.00-2.93Q3030.62 1.61 3014.58 4.61Q2998.54 7.62 2984.03 7.62ZM2957.81-151.76L2957.81-151.76Q2958.11-151.76 2958.47-151.90Q2958.84-152.05 2959.13-152.34L2959.13-152.34L2962.35-156.01Q2969.09-164.36 2975.24-172.85L2975.24-172.85Q2977.44-175.93 2980.66-181.13Q2983.89-186.33 2986.08-191.60L2986.08-191.60Q2987.84-195.41 2987.84-197.46L2987.84-197.46Q2987.84-198.19 2987.55-198.63L2987.55-198.63Q2987.55-198.63 2987.55-198.63L2987.55-198.63Q2987.55-198.78 2987.48-198.78Q2987.40-198.78 2987.33-198.78Q2987.26-198.78 2987.04-198.78Q2986.82-198.78 2986.52-198.78L2986.52-198.78Q2985.50-198.78 2983.08-197.24Q2980.66-195.70 2978.47-194.09L2978.47-194.09Q2969.82-187.35 2963.67-178.71L2963.67-178.71Q2960.60-174.32 2958.69-169.78L2958.69-169.78Q2956.64-165.09 2956.35-160.55L2956.35-160.55Q2956.20-159.52 2956.20-158.50L2956.20-158.50Q2956.20-154.25 2957.37-152.05L2957.37-152.05Q2957.37-151.90 2957.52-151.83Q2957.67-151.76 2957.81-151.76Z"/></svg>